<svg width="512" height="512" viewBox="0 0 512 512" xmlns="http://www.w3.org/2000/svg" version="1.1">
    <g>
        <circle fill="#fff" r="256" cy="256.000366" cx="256"/>
        <path
            d="m231.5,1.09999c-80,8.3 -150.1,51.8 -192.7,119.6c-48.7,77.40001 -51.6,177.70001 -7.5,257.80001c20,36.4 48.7,67.6 84.1,91.3c23.8,15.9 60,31.1 87.6,36.6c21.4,4.3 29.5,5.1 53,5.1c23.6,0 33.3,-1 53.2,-5.1c88.00001,-18.4 161.50001,-84.2 189.80001,-170.2c9.2,-27.8 12.5,-49.1 12.5,-80.2c0,-30.1 -3.2,-51.3 -11.6,-77.5c-12.4,-39.00001 -33,-72.80001 -62.2,-102.40001c-39.9,-40.4 -89.3,-65.3 -146.20001,-73.7c-12.3,-1.8 -47.8,-2.6 -60,-1.3zm24.4,67c7.8,1.8 15.3,6.2 23.6,14l8.1,7.7l5.9,-2.5c19,-7.8 45.00001,-11.2 60.40001,-7.9c16,3.4 27.6,11.6 33.3,23.5c2.6,5.6 3.2,8 3.6,16.1c0.7,15.4 -4.4,29.8 -16.3,46.5l-5.6,7.8l2.6,4.80001c5.9,10.9 8.5,21.4 9.4,37.8l0.6,12.5l8.1,3.1c9.9,3.9 18.3,9.4 22.9,14.9c7.9,9.7 10.9,22.2 7.9,33.1c-2.8,10.1 -2.5,11.2 4.2,18c9.5,9.4 12.1,20.5 9,38.1c-8.2,47.1 -42.9,85.9 -90.6,101.2c-58.90001,18.8 -123.30001,4.9 -163.50001,-35.3c-9.4,-9.3 -23.2,-27.9 -25,-33.4c-0.3,-1.2 -1.8,-2.3 -3.3,-2.7c-22.3,-4.7 -40.5,-19 -49.7,-38.9c-4.5,-9.7 -5.8,-16.7 -5.4,-30.5l0.4,-11.8l-6.3,-6.5c-7.3,-7.7 -10.6,-14.3 -12.3,-24.6c-5.1,-30.6 21,-81.30001 64.8,-126.20001c31,-31.8 62.8,-52.7 88.8,-58.4c7.3,-1.6 18.4,-1.8 24.4,-0.4z"
            fill="#ffe01b"/>
        <path
            d="m235.5,80.39999c-34.9,6.6 -86.5,49.3 -119.5,98.9c-9.6,14.4 -17.9,30.4 -22.2,42.8c-3,8.6 -3.2,10.4 -3.3,21.9c0,12 0.1,12.7 3,17.9c1.9,3.5 5.5,7.6 10.3,11.5c3.9,3.3 7.2,6.5 7.2,7.1c-0.1,0.5 -0.7,3.7 -1.5,7c-6.3,26.1 8.5,53.1 34.7,62.9c3.5,1.3 8.8,2.7 11.8,3.1l5.6,0.7l4.4,8.6c11.3,22.2 31.8,42 55.9,54.1c44.2,22.3 103.8,20.5 144.5,-4.2c32.2,-19.5 53.7,-53.2 55.3,-86.2c0.4,-10.2 0.3,-11.3 -1.9,-15.5c-1.6,-3.1 -3.6,-5.1 -6.4,-6.5c-3.8,-1.8 -4.3,-2.6 -6.6,-9.9l-2.6,-7.8l2.4,-5.2c4.4,-9.4 2.8,-19.7 -4.2,-27.5c-6,-6.7 -11.9,-9.5 -32.1,-15.7c-0.9,-0.2 -1.3,-3.3 -1.3,-10.6c0,-23.7 -4.1,-39.5 -13.3,-51.1l-3,-3.8l3.2,-3.7c10.9,-12.9 18.7,-26.4 21.6,-37.7c4.7,-18.5 -2.6,-32.3 -20.5,-38.6c-5.3,-1.8 -8.5,-2.2 -18,-2.2c-16.1,0.1 -24.9,2.1 -50.2,11.9l-4.7,1.8l-10.8,-10.5c-8.7,-8.5 -11.8,-10.9 -15.8,-12.2c-7.3,-2.4 -14.1,-2.8 -22,-1.3zm16.5,12.6c3.5,1 19,15.3 19,17.6c0,0.6 -3.9,3.5 -8.7,6.4c-30.5,18.5 -59,42.2 -76.2,63.3c-13.9,17.1 -28.4,41.8 -36.7,62.2l-3.2,8l-6.1,2.2c-7.5,2.7 -16.2,8.3 -20.1,13.1l-2.9,3.6l-5.8,-5c-9.6,-8.4 -11.5,-18.8 -6.2,-35.9c5.4,-17.9 23.1,-47.8 40.2,-68c36.5,-43.2 84.8,-73.8 106.7,-67.5zm40,51.5c-3.8,3.9 -3.6,4 5.2,4.9c6.9,0.7 20.6,4.9 23.3,7.1c1.9,1.6 1.8,1.6 -2,1.1c-22.2,-3.2 -35.9,-3.2 -51.2,-0.1c-15.6,3.2 -36.7,11.5 -46.8,18.5c-2.5,1.8 -4.9,2.9 -5.3,2.5c-0.9,-0.9 16.6,-17.7 25.1,-24c8.1,-6.1 17.6,-12 18.2,-11.3c0.3,0.3 -0.4,2.6 -1.6,5.2c-1.1,2.6 -1.9,4.9 -1.7,5.2c0.3,0.2 3.4,-1.2 7,-3.1c3.7,-2 9.3,-4.5 12.5,-5.6c5.8,-2.1 19.4,-4.9 20.2,-4.2c0.3,0.2 -1,1.9 -2.9,3.8zm53.9,44.9c6.8,3.6 9,10.7 10.5,34.7c0.9,14.4 1.6,20.3 2.8,22c1.1,1.8 4.5,3.3 13.4,6.1c13.8,4.3 20.3,8 22.7,13.1c2.1,4.3 2.1,6.7 0.2,11.5c-4.7,11.3 -24.1,23.1 -48.4,29.6c-14.5,3.9 -26.3,5 -46.4,4.3c-19.2,-0.7 -20.9,-0.4 -25.4,4.5c-7.4,7.9 -6.8,22.8 1.4,30.4c4,3.8 13.5,8.1 22.2,10c10.5,2.4 30.8,1.4 44.7,-2c18.4,-4.5 35,-13.1 45.2,-23.3c2.4,-2.5 4.2,-4.7 3.9,-4.9c-0.3,-0.3 -2.7,0.9 -5.4,2.5c-14.3,8.8 -35.1,16.7 -51.2,19.5c-24.3,4.2 -49.3,-0.2 -55.1,-9.6c-3.3,-5.4 -2.7,-5.7 5.8,-3.5c10.8,2.7 33.1,2.9 42,0.3c3.4,-1 6.2,-2.2 6.2,-2.6c0,-0.5 -7.1,-0.8 -15.7,-0.9c-20.1,0 -39.3,-3.7 -39.3,-7.5c0,-3.7 2.6,-4.1 27.9,-4.1c21.2,-0.1 26,-0.4 34.6,-2.2c17.8,-3.7 34,-10.3 47.1,-18.9c2.8,-1.9 5.4,-3.4 5.7,-3.4c0.5,0 4,10.3 5.1,15.2c0.4,1.9 1.4,2.8 3.6,3.3c4.1,0.9 6,4 6,10c0,17.2 -13.2,40.2 -30.8,53.6c-9.1,6.9 -24.6,14.3 -36.7,17.5c-13.6,3.6 -34.7,3.9 -47,0.5c-25.5,-6.9 -43.2,-23.7 -49,-46.6c-1.9,-7.4 -1.9,-21.9 -0.1,-30.6c1.9,-9 6.3,-18.1 12.5,-26.3c6.3,-8.1 6.4,-7.5 -3.3,-19.1c-11.9,-14.2 -16.1,-26.3 -13.8,-39.6c2.3,-13.1 9.9,-23.5 21,-28.7c5.4,-2.6 6.3,-2.7 17.2,-2.2c24.1,0.9 30.1,0.6 35.4,-1.8c2.7,-1.2 6.8,-3.7 9,-5.6c2.3,-1.8 5.5,-4 7.1,-4.9c3.8,-2 10.7,-2.1 14.4,-0.3zm-178.6,76.4c9.6,4.3 17.2,15 19.7,28c1.9,9.7 0.9,24.6 -2.2,31.3c-7.9,17.2 -26.7,20.7 -45.2,8.4c-6.8,-4.5 -11.6,-10.1 -15.3,-18.1c-2.5,-5.2 -2.8,-7 -2.8,-15.9c0,-8.7 0.4,-10.7 2.6,-15.6c8,-17.2 27.2,-25.2 43.2,-18.1z"
            fill="#000000"/>
        <path
            d="m335.3,222.6c-1.5,2.3 -1.5,3.4 -0.5,9.4c0.6,3.8 1.9,8.5 2.9,10.4c1.5,3.3 2,3.6 6,3.6l4.3,0l0,-6.3c0,-7.2 -2,-14.9 -4.6,-17.8c-2.4,-2.7 -6,-2.4 -8.1,0.7z"
            fill="#000000"/>
        <path
            d="m281,242.9c-7.5,1.5 -16.5,8 -14.2,10.3c0.4,0.4 3.9,-0.1 7.7,-1.2c9.1,-2.6 13.5,-2.5 22,0.5c3.8,1.4 7.3,2.1 7.8,1.6c0.4,-0.4 -0.4,-2.3 -2,-4.1c-4.5,-5.4 -13.9,-8.5 -21.3,-7.1z"
            fill="#000000"/>
        <path d="m343.00001,256c-2.4,2.4 -2.6,5.7 -0.4,8.8c1.8,2.7 3.6,2.8 5.7,0.4c2.2,-2.5 2.1,-7.5 -0.1,-9.5c-2.4,-2.2 -2.8,-2.1 -5.2,0.3z"
              fill="#000000"/>
        <path
            d="m285.1,258.8c-3.8,2 -5.9,4.7 -4.8,5.8c0.4,0.4 2.6,0.1 4.9,-0.6c2.4,-0.7 7.3,-1.3 11.1,-1.2c3.7,0.1 6.7,-0.3 6.7,-0.7c0,-0.4 -0.9,-1.6 -2,-2.6c-3,-2.7 -11.6,-3.1 -15.9,-0.7z"
            fill="#000000"/>
        <path d="m322.7,263.7c-1.3,1.2 -0.7,5 1.1,6.5c2.9,2.5 5.3,2.9 7.8,1.3c3,-2 3,-3 -0.1,-6c-2.3,-2.4 -7.3,-3.4 -8.8,-1.8z" fill="#000000"/>
        <path
            d="m146.2,278.7c-6,2.9 -10.6,11.1 -10,17.9c0.4,5.3 2.7,5.1 5.4,-0.6c3,-6.2 5.7,-8.5 10.4,-8.5c4.5,0 8.6,3.2 9.5,7.5c0.3,1.6 -0.1,5.4 -1,8.5c-2.1,6.9 -1.3,12 2.3,15.7c4.1,4.4 13.2,3.4 13.2,-1.3c0,-1.7 -0.5,-1.9 -3.3,-1.4c-2.5,0.5 -3.7,0.2 -5.1,-1.4c-2.1,-2.3 -1.9,-4.5 1.4,-13.6c1.6,-4.4 2,-7.1 1.5,-10.3c-0.7,-4.7 -4.9,-10.3 -9.6,-12.8c-3.7,-1.9 -10.6,-1.8 -14.7,0.3z"
            fill="#000000"/>
    </g>
</svg>
